<?xml version="1.0"?>
<svg xmlns="http://www.w3.org/2000/svg" xmlns:xlink="http://www.w3.org/1999/xlink" xmlns:svgjs="http://svgjs.com/svgjs" version="1.1" width="512px" height="512px" x="0" y="0" viewBox="0 0 368 368" style="enable-background:new 0 0 512 512" xml:space="preserve" class=""><g><path d="m248 112h-128c-4.414062 0-8 3.585938-8 8v128c0 4.414062 3.585938 8 8 8h128c4.425781 0 8-3.585938 8-8v-128c0-4.414062-3.574219-8-8-8zm-8 128h-112v-112h112zm0 0" fill="#e6e6e6" data-original="#000000" class=""/><path d="m360 96c4.425781 0 8-3.585938 8-8s-3.574219-8-8-8h-56v-8c0-4.414062-3.574219-8-8-8h-8v-56c0-4.414062-3.574219-8-8-8s-8 3.585938-8 8v56h-32v-56c0-4.414062-3.574219-8-8-8s-8 3.585938-8 8v56h-32v-56c0-4.414062-3.585938-8-8-8s-8 3.585938-8 8v56h-32v-56c0-4.414062-3.585938-8-8-8s-8 3.585938-8 8v56h-32v-56c0-4.414062-3.585938-8-8-8s-8 3.585938-8 8v56h-8c-4.414062 0-8 3.585938-8 8v8h-56c-4.414062 0-8 3.585938-8 8s3.585938 8 8 8h56v32h-56c-4.414062 0-8 3.585938-8 8s3.585938 8 8 8h56v32h-56c-4.414062 0-8 3.585938-8 8s3.585938 8 8 8h56v32h-56c-4.414062 0-8 3.585938-8 8s3.585938 8 8 8h56v32h-56c-4.414062 0-8 3.585938-8 8s3.585938 8 8 8h56v8c0 4.414062 3.585938 8 8 8h8v56c0 4.414062 3.585938 8 8 8s8-3.585938 8-8v-56h32v56c0 4.414062 3.585938 8 8 8s8-3.585938 8-8v-56h32v56c0 4.414062 3.585938 8 8 8s8-3.585938 8-8v-56h32v56c0 4.414062 3.574219 8 8 8s8-3.585938 8-8v-56h32v56c0 4.414062 3.574219 8 8 8s8-3.585938 8-8v-56h8c4.425781 0 8-3.585938 8-8v-8h56c4.425781 0 8-3.585938 8-8s-3.574219-8-8-8h-56v-32h56c4.425781 0 8-3.585938 8-8s-3.574219-8-8-8h-56v-32h56c4.425781 0 8-3.585938 8-8s-3.574219-8-8-8h-56v-32h56c4.425781 0 8-3.585938 8-8s-3.574219-8-8-8h-56v-32zm-72 192h-208v-208h208zm0 0" fill="#e6e6e6" data-original="#000000" class=""/></g></svg>
