<?xml version="1.0" standalone="no"?><!DOCTYPE svg PUBLIC "-//W3C//DTD SVG 1.1//EN" "http://www.w3.org/Graphics/SVG/1.1/DTD/svg11.dtd"><svg t="1667448158093" class="icon" viewBox="0 0 1024 1024" version="1.1" xmlns="http://www.w3.org/2000/svg" p-id="5832" xmlns:xlink="http://www.w3.org/1999/xlink" width="200" height="200"><path d="M219.008 411.562667C116.117333 411.562667 21.333333 504.469333 21.333333 603.968 21.333333 704.96 116.885333 810.666667 218.368 810.666667H725.333333l0.128-20.992H218.496c-90.197333 0-177.429333-94.912-177.429333-185.706667 0-88.981333 86.016-173.333333 177.92-173.333333 6.314667 0 12.608 0.341333 18.816 1.002666l10.517333 1.109334 0.448-10.197334c4.48-103.018667 92.138667-190.165333 195.584-190.165333 86.570667 0 164.885333 60.565333 190.314667 143.509333l18.922666-5.418666C625.749333 279.701333 539.968 213.333333 444.352 213.333333c-110.997333 0-204.757333 89.984-214.656 198.528a197.354667 197.354667 0 0 0-10.688-0.298666zM802.474667 494.229333a53.696 53.696 0 0 1-53.653334-53.632 53.696 53.696 0 0 1 53.653334-53.632 53.674667 53.674667 0 0 1 53.632 53.632 53.674667 53.674667 0 0 1-53.632 53.632z m0-85.930666c-17.813333 0-32.32 14.485333-32.32 32.298666s14.506667 32.298667 32.32 32.298667 32.298667-14.485333 32.298666-32.298667-14.485333-32.298667-32.298666-32.298666z" fill="#e6e6e6" p-id="5833"></path><path d="M704.042667 706.176l-12.074667-46.677333a376.533333 376.533333 0 0 1-9.536-51.797334 223.68 223.68 0 0 1 0.981333-61.333333 101.44 101.44 0 0 1 22.058667-50.112l0.96-1.173333-0.213333-1.472a203.562667 203.562667 0 0 1-1.877334-18.133334c-1.984-33.706667 3.541333-68.117333 15.957334-99.477333a335.829333 335.829333 0 0 1 75.669333-112.426667l7.488-7.317333 7.488 7.317333a335.36 335.36 0 0 1 76.010667 112.448c12.416 31.445333 17.898667 65.792 15.893333 99.477334a259.2 259.2 0 0 1-1.92 18.069333l-0.213333 1.493333 0.917333 1.152c11.797333 14.250667 19.413333 31.573333 22.037333 50.090667 3.114667 20.138667 3.413333 40.832 0.917334 61.290667a374.250667 374.250667 0 0 1-9.621334 51.626666l-12.010666 46.165334-8.746667-46.890667a124.288 124.288 0 0 0-3.306667-13.866667 143.893333 143.893333 0 0 0-29.866666-56.213333l-1.557334-1.813333-2.197333 0.96c-11.328 4.885333-30.4 7.573333-53.717333 7.616-13.589333 0-38.592-1.045333-53.76-7.552l-2.218667-0.96-1.578667 1.834666a145.386667 145.386667 0 0 0-29.866666 56.170667 146.986667 146.986667 0 0 0-3.264 14.144l-8.832 47.36z m99.413333-419.797333A313.578667 313.578667 0 0 0 740.074667 384a214.122667 214.122667 0 0 0-14.506667 90.282667c0.341333 5.546667 0.917333 10.944 1.685333 16.192l1.621334 10.88-6.997334 8.490666a79.957333 79.957333 0 0 0-17.429333 39.701334 204.309333 204.309333 0 0 0-0.874667 55.658666c0.341333 2.858667 0.661333 5.717333 1.088 8.533334a167.04 167.04 0 0 1 25.173334-39.296l11.882666-13.610667 16.490667 7.125333c8.298667 3.562667 25.621333 5.781333 45.290667 5.802667 19.882667-0.042667 36.8-2.218667 45.226666-5.866667l16.554667-7.168 11.797333 13.674667a164.565333 164.565333 0 0 1 25.216 39.253333c0.426667-2.88 0.746667-5.76 1.088-8.618666a202.410667 202.410667 0 0 0-0.832-55.637334 80 80 0 0 0-17.408-39.658666l-6.869333-8.448 1.536-10.730667c0.746667-5.333333 1.344-10.837333 1.749333-16.448A212.821333 212.821333 0 0 0 867.136 384a314.944 314.944 0 0 0-63.68-97.621333z" fill="#e6e6e6" p-id="5834"></path><path d="M802.56 878.208h-0.405333a18.773333 18.773333 0 0 1-16.96-10.965333c-58.624-125.888-69.738667-208.448-32.874667-245.290667a68.266667 68.266667 0 0 1 46.506667-18.837333l3.008 0.085333a65.365333 65.365333 0 0 1 59.434666 29.290667c25.962667 40.661333 11.925333 119.701333-41.664 235.072a18.133333 18.133333 0 0 1-3.882666 5.312l-1.898667 1.792-6.08 2.666666a21.589333 21.589333 0 0 1-4.8 0.853334l-0.384 0.021333z m-1.941333-253.717333c-13.461333 0-24.917333 4.672-33.408 12.757333-28.330667 28.352-15.957333 105.002667 35.008 215.893333 60.544-131.072 55.829333-185.984 41.130666-209.024a43.861333 43.861333 0 0 0-36.629333-19.754666l-5.845333 0.128h-0.256z" fill="#e6e6e6" p-id="5835"></path><path d="M373.909333 738.176l-158.677333-138.133333 13.994667-16.085334 143.658666 124.992 232.896-232.917333 15.104 15.082667z" fill="#e6e6e6" p-id="5836"></path></svg>