<?xml version="1.0"?>
<svg xmlns="http://www.w3.org/2000/svg" xmlns:xlink="http://www.w3.org/1999/xlink" xmlns:svgjs="http://svgjs.com/svgjs" version="1.1" width="512px" height="512px" x="0" y="0" viewBox="0 0 464 464" style="enable-background:new 0 0 512 512" xml:space="preserve" class=""><g><path d="m448 304h-448v96h448zm-408 72h-16v-48h16zm32 0h-16v-48h16zm32 0h-16v-48h16zm80 0h-16v-16h16zm0-32h-16v-16h16zm32 32h-16v-16h16zm0-32h-16v-16h16zm32 32h-16v-16h16zm0-32h-16v-16h16zm32 32h-16v-16h16zm0-32h-16v-16h16zm32 32h-16v-16h16zm0-32h-16v-16h16zm32 32h-16v-16h16zm0-32h-16v-16h16zm48 40c-17.671875 0-32-14.328125-32-32s14.328125-32 32-32 32 14.328125 32 32-14.328125 32-32 32zm0 0" fill="#e6e6e6" data-original="#000000" class=""/><path d="m40 112h24v24h-24zm0 0" fill="#e6e6e6" data-original="#000000" class=""/><path d="m408 352c0 8.835938-7.164062 16-16 16s-16-7.164062-16-16 7.164062-16 16-16 16 7.164062 16 16zm0 0" fill="#e6e6e6" data-original="#000000" class=""/><path d="m448 0h-448v96h448zm-408 72h-16v-48h16zm32 0h-16v-48h16zm32 0h-16v-48h16zm80 0h-16v-16h16zm0-32h-16v-16h16zm32 32h-16v-16h16zm0-32h-16v-16h16zm32 32h-16v-16h16zm0-32h-16v-16h16zm32 32h-16v-16h16zm0-32h-16v-16h16zm32 32h-16v-16h16zm0-32h-16v-16h16zm32 32h-16v-16h16zm0-32h-16v-16h16zm48 40c-17.671875 0-32-14.328125-32-32s14.328125-32 32-32 32 14.328125 32 32-14.328125 32-32 32zm0 0" fill="#e6e6e6" data-original="#000000" class=""/><path d="m384 112h24v24h-24zm0 0" fill="#e6e6e6" data-original="#000000" class=""/><path d="m408 48c0 8.835938-7.164062 16-16 16s-16-7.164062-16-16 7.164062-16 16-16 16 7.164062 16 16zm0 0" fill="#e6e6e6" data-original="#000000" class=""/><path d="m40 264h24v24h-24zm0 0" fill="#e6e6e6" data-original="#000000" class=""/><path d="m448 152h-448v96h448zm-408 72h-16v-48h16zm32 0h-16v-48h16zm32 0h-16v-48h16zm80 0h-16v-16h16zm0-32h-16v-16h16zm32 32h-16v-16h16zm0-32h-16v-16h16zm32 32h-16v-16h16zm0-32h-16v-16h16zm32 32h-16v-16h16zm0-32h-16v-16h16zm32 32h-16v-16h16zm0-32h-16v-16h16zm32 32h-16v-16h16zm0-32h-16v-16h16zm48 40c-17.671875 0-32-14.328125-32-32s14.328125-32 32-32 32 14.328125 32 32-14.328125 32-32 32zm0 0" fill="#e6e6e6" data-original="#000000" class=""/><path d="m408 200c0 8.835938-7.164062 16-16 16s-16-7.164062-16-16 7.164062-16 16-16 16 7.164062 16 16zm0 0" fill="#e6e6e6" data-original="#000000" class=""/><path d="m384 264h24v24h-24zm0 0" fill="#e6e6e6" data-original="#000000" class=""/><path d="m24 416h16v48h-16zm0 0" fill="#e6e6e6" data-original="#000000" class=""/><path d="m408 416h16v48h-16zm0 0" fill="#e6e6e6" data-original="#000000" class=""/><path d="m248 432h16v16h-16zm0 0" fill="#e6e6e6" data-original="#000000" class=""/><path d="m280 432h16v16h-16zm0 0" fill="#e6e6e6" data-original="#000000" class=""/><path d="m312 432h16v16h-16zm0 0" fill="#e6e6e6" data-original="#000000" class=""/><path d="m344 432h16v16h-16zm0 0" fill="#e6e6e6" data-original="#000000" class=""/><path d="m376 432h16v16h-16zm0 0" fill="#e6e6e6" data-original="#000000" class=""/><path d="m216 432h16v16h-16zm0 0" fill="#e6e6e6" data-original="#000000" class=""/><path d="m184 432h16v16h-16zm0 0" fill="#e6e6e6" data-original="#000000" class=""/><path d="m152 432h16v16h-16zm0 0" fill="#e6e6e6" data-original="#000000" class=""/><path d="m120 432h16v16h-16zm0 0" fill="#e6e6e6" data-original="#000000" class=""/><path d="m88 432h16v16h-16zm0 0" fill="#e6e6e6" data-original="#000000" class=""/><path d="m56 432h16v16h-16zm0 0" fill="#e6e6e6" data-original="#000000" class=""/></g></svg>
