<?xml version="1.0" standalone="no"?><!DOCTYPE svg PUBLIC "-//W3C//DTD SVG 1.1//EN" "http://www.w3.org/Graphics/SVG/1.1/DTD/svg11.dtd"><svg t="1667447918216" class="icon" viewBox="0 0 1024 1024" version="1.1" xmlns="http://www.w3.org/2000/svg" p-id="3873" xmlns:xlink="http://www.w3.org/1999/xlink" width="200" height="200"><path d="M1008 912H16a16 16 0 0 1-16-16V128a16 16 0 0 1 16-16h992a16 16 0 0 1 16 16v768a16 16 0 0 1-16 16zM32 880h960V144H32v736z" fill="#e6e6e6" p-id="3874"></path><path d="M1008 272H16a16 16 0 1 1 0-32h992a16 16 0 1 1 0 32zM944 208c-4.16 0-8.32-1.76-11.36-4.64-2.88-3.04-4.64-7.2-4.64-11.36 0-4.16 1.76-8.32 4.64-11.36 6.08-5.92 16.64-5.92 22.72 0 2.88 3.04 4.64 7.2 4.64 11.36 0 4.32-1.76 8.32-4.64 11.36-3.04 2.88-7.04 4.64-11.36 4.64zM880 208c-4.16 0-8.32-1.76-11.36-4.64-2.88-3.04-4.64-7.2-4.64-11.36 0-4.16 1.76-8.32 4.64-11.36 5.92-5.92 16.8-5.92 22.72 0 2.88 3.04 4.64 7.2 4.64 11.36 0 4.16-1.76 8.32-4.64 11.36-3.04 2.88-7.2 4.64-11.36 4.64zM816 208c-4.16 0-8.32-1.76-11.36-4.64a16.192 16.192 0 0 1 0-22.72c5.76-5.92 16.8-5.92 22.72 0 2.88 3.04 4.64 7.2 4.64 11.36 0 4.16-1.76 8.32-4.64 11.36-3.04 2.88-7.2 4.64-11.36 4.64zM272 480h-64a16 16 0 0 1-16-16v-96a16 16 0 0 1 16-16h64a16 16 0 0 1 16 16v96a16 16 0 0 1-16 16z m-48-32h32v-64h-32v64zM144 480a16 16 0 0 1-16-16v-80H112a16 16 0 1 1 0-32h32a16 16 0 0 1 16 16v96a16 16 0 0 1-16 16zM368 480a16 16 0 0 1-16-16v-80h-16a16 16 0 1 1 0-32h32a16 16 0 0 1 16 16v96a16 16 0 0 1-16 16zM496 480h-64a16 16 0 0 1-16-16v-96a16 16 0 0 1 16-16h64a16 16 0 0 1 16 16v96a16 16 0 0 1-16 16z m-48-32h32v-64h-32v64zM592 480a16 16 0 0 1-16-16v-80h-16a16 16 0 1 1 0-32h32a16 16 0 0 1 16 16v96a16 16 0 0 1-16 16zM720 480h-64a16 16 0 0 1-16-16v-96a16 16 0 0 1 16-16h64a16 16 0 0 1 16 16v96a16 16 0 0 1-16 16z m-48-32h32v-64h-32v64zM816 480a16 16 0 0 1-16-16v-80h-16a16 16 0 1 1 0-32h32a16 16 0 0 1 16 16v96a16 16 0 0 1-16 16zM224 640h-64a16 16 0 0 1-16-16v-96a16 16 0 0 1 16-16h64a16 16 0 0 1 16 16v96a16 16 0 0 1-16 16z m-48-32h32v-64h-32v64zM320 640a16 16 0 0 1-16-16v-80h-16a16 16 0 1 1 0-32h32a16 16 0 0 1 16 16v96a16 16 0 0 1-16 16z" fill="#e6e6e6" p-id="3875"></path><path d="M448 640h-64a16 16 0 0 1-16-16v-96a16 16 0 0 1 16-16h64a16 16 0 0 1 16 16v96a16 16 0 0 1-16 16z m-48-32h32v-64h-32v64z" fill="#e6e6e6" p-id="3876"></path><path d="M544 640a16 16 0 0 1-16-16v-80h-16a16 16 0 1 1 0-32h32a16 16 0 0 1 16 16v96a16 16 0 0 1-16 16z" fill="#e6e6e6" p-id="3877"></path><path d="M672 640h-64a16 16 0 0 1-16-16v-96a16 16 0 0 1 16-16h64a16 16 0 0 1 16 16v96a16 16 0 0 1-16 16z m-48-32h32v-64h-32v64z" fill="#e6e6e6" p-id="3878"></path><path d="M768 640a16 16 0 0 1-16-16v-80h-16a16 16 0 1 1 0-32h32a16 16 0 0 1 16 16v96a16 16 0 0 1-16 16z" fill="#e6e6e6" p-id="3879"></path><path d="M896 640h-64a16 16 0 0 1-16-16v-96a16 16 0 0 1 16-16h64a16 16 0 0 1 16 16v96a16 16 0 0 1-16 16z m-48-32h32v-64h-32v64z" fill="#e6e6e6" p-id="3880"></path><path d="M320 800h-64a16 16 0 0 1-16-16v-96a16 16 0 0 1 16-16h64a16 16 0 0 1 16 16v96a16 16 0 0 1-16 16z m-48-32h32v-64h-32v64zM192 800a16 16 0 0 1-16-16v-80h-16a16 16 0 1 1 0-32h32a16 16 0 0 1 16 16v96a16 16 0 0 1-16 16zM416 800a16 16 0 0 1-16-16v-80h-16a16 16 0 1 1 0-32h32a16 16 0 0 1 16 16v96a16 16 0 0 1-16 16zM544 800h-64a16 16 0 0 1-16-16v-96a16 16 0 0 1 16-16h64a16 16 0 0 1 16 16v96a16 16 0 0 1-16 16z m-48-32h32v-64h-32v64zM640 800a16 16 0 0 1-16-16v-80h-16a16 16 0 1 1 0-32h32a16 16 0 0 1 16 16v96a16 16 0 0 1-16 16zM768 800h-64a16 16 0 0 1-16-16v-96a16 16 0 0 1 16-16h64a16 16 0 0 1 16 16v96a16 16 0 0 1-16 16z m-48-32h32v-64h-32v64zM864 800a16 16 0 0 1-16-16v-80h-16a16 16 0 1 1 0-32h32a16 16 0 0 1 16 16v96a16 16 0 0 1-16 16z" fill="#e6e6e6" p-id="3881"></path><path d="M752 272a16 16 0 0 1-16-16V128a16 16 0 1 1 32 0v128a16 16 0 0 1-16 16z" fill="#e6e6e6" p-id="3882"></path></svg>